<mxfile host="app.diagrams.net" modified="2022-07-11T21:57:31.259Z" agent="5.0 (Windows NT 10.0; Win64; x64) AppleWebKit/537.36 (KHTML, like Gecko) Chrome/103.0.5060.114 Safari/537.36" etag="-ehmzkPeXmmgR_QTRNKF" version="20.0.4" type="github">
  <diagram id="C5RBs43oDa-KdzZeNtuy" name="Page-1">
    <mxGraphModel dx="1038" dy="511" grid="1" gridSize="10" guides="1" tooltips="1" connect="1" arrows="1" fold="1" page="1" pageScale="1" pageWidth="827" pageHeight="1169" math="0" shadow="0">
      <root>
        <mxCell id="WIyWlLk6GJQsqaUBKTNV-0" />
        <mxCell id="WIyWlLk6GJQsqaUBKTNV-1" parent="WIyWlLk6GJQsqaUBKTNV-0" />
        <mxCell id="w3meJBPXueiPkZgnFTQH-99" value="" style="edgeStyle=orthogonalEdgeStyle;rounded=0;orthogonalLoop=1;jettySize=auto;html=1;" edge="1" parent="WIyWlLk6GJQsqaUBKTNV-1" source="w3meJBPXueiPkZgnFTQH-0" target="w3meJBPXueiPkZgnFTQH-12">
          <mxGeometry relative="1" as="geometry" />
        </mxCell>
        <mxCell id="w3meJBPXueiPkZgnFTQH-0" value="" style="verticalLabelPosition=bottom;verticalAlign=top;html=1;shape=mxgraph.flowchart.on-page_reference;" vertex="1" parent="WIyWlLk6GJQsqaUBKTNV-1">
          <mxGeometry x="250" y="10" width="60" height="60" as="geometry" />
        </mxCell>
        <mxCell id="w3meJBPXueiPkZgnFTQH-1" value="" style="strokeWidth=2;html=1;shape=mxgraph.flowchart.delay;whiteSpace=wrap;" vertex="1" parent="WIyWlLk6GJQsqaUBKTNV-1">
          <mxGeometry x="480" y="10" width="40" height="20" as="geometry" />
        </mxCell>
        <mxCell id="w3meJBPXueiPkZgnFTQH-2" value="Participant 1" style="text;html=1;align=center;verticalAlign=middle;resizable=0;points=[];autosize=1;strokeColor=none;fillColor=none;" vertex="1" parent="WIyWlLk6GJQsqaUBKTNV-1">
          <mxGeometry x="520" y="5" width="90" height="30" as="geometry" />
        </mxCell>
        <mxCell id="w3meJBPXueiPkZgnFTQH-3" value="" style="strokeWidth=2;html=1;shape=mxgraph.flowchart.display;whiteSpace=wrap;rotation=-180;" vertex="1" parent="WIyWlLk6GJQsqaUBKTNV-1">
          <mxGeometry x="480" y="50" width="40" height="20" as="geometry" />
        </mxCell>
        <mxCell id="w3meJBPXueiPkZgnFTQH-5" value="Participant 2" style="text;html=1;align=center;verticalAlign=middle;resizable=0;points=[];autosize=1;strokeColor=none;fillColor=none;" vertex="1" parent="WIyWlLk6GJQsqaUBKTNV-1">
          <mxGeometry x="520" y="45" width="90" height="30" as="geometry" />
        </mxCell>
        <mxCell id="w3meJBPXueiPkZgnFTQH-6" value="Start" style="text;html=1;strokeColor=none;fillColor=none;align=center;verticalAlign=middle;whiteSpace=wrap;rounded=0;container=1;" vertex="1" parent="WIyWlLk6GJQsqaUBKTNV-1">
          <mxGeometry x="250" y="25" width="60" height="30" as="geometry" />
        </mxCell>
        <mxCell id="w3meJBPXueiPkZgnFTQH-25" style="edgeStyle=orthogonalEdgeStyle;rounded=0;orthogonalLoop=1;jettySize=auto;html=1;entryX=0.5;entryY=0;entryDx=0;entryDy=0;" edge="1" parent="WIyWlLk6GJQsqaUBKTNV-1" source="w3meJBPXueiPkZgnFTQH-12" target="w3meJBPXueiPkZgnFTQH-24">
          <mxGeometry relative="1" as="geometry" />
        </mxCell>
        <mxCell id="w3meJBPXueiPkZgnFTQH-12" value="Asks a Question" style="rounded=1;whiteSpace=wrap;html=1;" vertex="1" parent="WIyWlLk6GJQsqaUBKTNV-1">
          <mxGeometry x="220" y="120" width="120" height="60" as="geometry" />
        </mxCell>
        <mxCell id="w3meJBPXueiPkZgnFTQH-17" value="" style="group" vertex="1" connectable="0" parent="WIyWlLk6GJQsqaUBKTNV-1">
          <mxGeometry x="480" y="90" width="40" height="60" as="geometry" />
        </mxCell>
        <mxCell id="w3meJBPXueiPkZgnFTQH-13" value="" style="strokeWidth=2;html=1;shape=mxgraph.flowchart.delay;whiteSpace=wrap;" vertex="1" parent="w3meJBPXueiPkZgnFTQH-17">
          <mxGeometry width="40" height="20" as="geometry" />
        </mxCell>
        <mxCell id="w3meJBPXueiPkZgnFTQH-14" value="" style="strokeWidth=2;html=1;shape=mxgraph.flowchart.display;whiteSpace=wrap;rotation=-180;" vertex="1" parent="w3meJBPXueiPkZgnFTQH-17">
          <mxGeometry y="40" width="40" height="20" as="geometry" />
        </mxCell>
        <mxCell id="w3meJBPXueiPkZgnFTQH-15" value="" style="endArrow=classic;startArrow=classic;html=1;rounded=0;" edge="1" parent="w3meJBPXueiPkZgnFTQH-17">
          <mxGeometry width="50" height="50" relative="1" as="geometry">
            <mxPoint x="19.5" y="40" as="sourcePoint" />
            <mxPoint x="20" y="20" as="targetPoint" />
          </mxGeometry>
        </mxCell>
        <mxCell id="w3meJBPXueiPkZgnFTQH-18" value="Both Participants &lt;br&gt;Alternatively" style="text;html=1;align=center;verticalAlign=middle;resizable=0;points=[];autosize=1;strokeColor=none;fillColor=none;" vertex="1" parent="WIyWlLk6GJQsqaUBKTNV-1">
          <mxGeometry x="524" y="100" width="110" height="40" as="geometry" />
        </mxCell>
        <mxCell id="w3meJBPXueiPkZgnFTQH-19" value="" style="group" vertex="1" connectable="0" parent="WIyWlLk6GJQsqaUBKTNV-1">
          <mxGeometry x="170" y="120" width="40" height="60" as="geometry" />
        </mxCell>
        <mxCell id="w3meJBPXueiPkZgnFTQH-20" value="" style="strokeWidth=2;html=1;shape=mxgraph.flowchart.delay;whiteSpace=wrap;" vertex="1" parent="w3meJBPXueiPkZgnFTQH-19">
          <mxGeometry width="40" height="20" as="geometry" />
        </mxCell>
        <mxCell id="w3meJBPXueiPkZgnFTQH-21" value="" style="strokeWidth=2;html=1;shape=mxgraph.flowchart.display;whiteSpace=wrap;rotation=-180;" vertex="1" parent="w3meJBPXueiPkZgnFTQH-19">
          <mxGeometry y="40" width="40" height="20" as="geometry" />
        </mxCell>
        <mxCell id="w3meJBPXueiPkZgnFTQH-22" value="" style="endArrow=classic;startArrow=classic;html=1;rounded=0;" edge="1" parent="w3meJBPXueiPkZgnFTQH-19">
          <mxGeometry width="50" height="50" relative="1" as="geometry">
            <mxPoint x="19.5" y="40" as="sourcePoint" />
            <mxPoint x="20" y="20" as="targetPoint" />
          </mxGeometry>
        </mxCell>
        <mxCell id="w3meJBPXueiPkZgnFTQH-64" style="edgeStyle=orthogonalEdgeStyle;rounded=0;orthogonalLoop=1;jettySize=auto;html=1;entryX=0.5;entryY=0;entryDx=0;entryDy=0;" edge="1" parent="WIyWlLk6GJQsqaUBKTNV-1" source="w3meJBPXueiPkZgnFTQH-24" target="w3meJBPXueiPkZgnFTQH-63">
          <mxGeometry relative="1" as="geometry" />
        </mxCell>
        <mxCell id="w3meJBPXueiPkZgnFTQH-80" style="edgeStyle=orthogonalEdgeStyle;rounded=0;orthogonalLoop=1;jettySize=auto;html=1;entryX=0;entryY=0.5;entryDx=0;entryDy=0;" edge="1" parent="WIyWlLk6GJQsqaUBKTNV-1" source="w3meJBPXueiPkZgnFTQH-24" target="w3meJBPXueiPkZgnFTQH-79">
          <mxGeometry relative="1" as="geometry" />
        </mxCell>
        <mxCell id="w3meJBPXueiPkZgnFTQH-90" style="edgeStyle=orthogonalEdgeStyle;rounded=0;orthogonalLoop=1;jettySize=auto;html=1;entryX=0;entryY=0.5;entryDx=0;entryDy=0;" edge="1" parent="WIyWlLk6GJQsqaUBKTNV-1" source="w3meJBPXueiPkZgnFTQH-24" target="w3meJBPXueiPkZgnFTQH-83">
          <mxGeometry relative="1" as="geometry">
            <Array as="points">
              <mxPoint x="370" y="280" />
              <mxPoint x="370" y="460" />
            </Array>
          </mxGeometry>
        </mxCell>
        <mxCell id="w3meJBPXueiPkZgnFTQH-24" value="Ready to Answer" style="rhombus;whiteSpace=wrap;html=1;" vertex="1" parent="WIyWlLk6GJQsqaUBKTNV-1">
          <mxGeometry x="240" y="240" width="80" height="80" as="geometry" />
        </mxCell>
        <mxCell id="w3meJBPXueiPkZgnFTQH-47" value="" style="group" vertex="1" connectable="0" parent="WIyWlLk6GJQsqaUBKTNV-1">
          <mxGeometry x="220" y="213" width="40" height="50" as="geometry" />
        </mxCell>
        <mxCell id="w3meJBPXueiPkZgnFTQH-48" value="" style="strokeWidth=2;html=1;shape=mxgraph.flowchart.delay;whiteSpace=wrap;" vertex="1" parent="w3meJBPXueiPkZgnFTQH-47">
          <mxGeometry x="8" width="32" height="16.666666666666668" as="geometry" />
        </mxCell>
        <mxCell id="w3meJBPXueiPkZgnFTQH-49" value="" style="strokeWidth=2;html=1;shape=mxgraph.flowchart.display;whiteSpace=wrap;rotation=-180;" vertex="1" parent="w3meJBPXueiPkZgnFTQH-47">
          <mxGeometry x="8" y="33.333333333333336" width="32" height="16.666666666666668" as="geometry" />
        </mxCell>
        <mxCell id="w3meJBPXueiPkZgnFTQH-50" value="" style="endArrow=classic;html=1;rounded=0;" edge="1" parent="w3meJBPXueiPkZgnFTQH-47">
          <mxGeometry width="50" height="50" relative="1" as="geometry">
            <mxPoint y="4.166666666666667" as="sourcePoint" />
            <mxPoint y="45.833333333333336" as="targetPoint" />
          </mxGeometry>
        </mxCell>
        <mxCell id="w3meJBPXueiPkZgnFTQH-51" value="Same as Previous&lt;br&gt;Block" style="text;html=1;align=center;verticalAlign=middle;resizable=0;points=[];autosize=1;strokeColor=none;fillColor=none;" vertex="1" parent="WIyWlLk6GJQsqaUBKTNV-1">
          <mxGeometry x="685" y="20" width="120" height="40" as="geometry" />
        </mxCell>
        <mxCell id="w3meJBPXueiPkZgnFTQH-52" value="" style="group" vertex="1" connectable="0" parent="WIyWlLk6GJQsqaUBKTNV-1">
          <mxGeometry x="634" y="10" width="50" height="60" as="geometry" />
        </mxCell>
        <mxCell id="w3meJBPXueiPkZgnFTQH-53" value="" style="strokeWidth=2;html=1;shape=mxgraph.flowchart.delay;whiteSpace=wrap;" vertex="1" parent="w3meJBPXueiPkZgnFTQH-52">
          <mxGeometry x="10" width="40" height="20" as="geometry" />
        </mxCell>
        <mxCell id="w3meJBPXueiPkZgnFTQH-54" value="" style="strokeWidth=2;html=1;shape=mxgraph.flowchart.display;whiteSpace=wrap;rotation=-180;" vertex="1" parent="w3meJBPXueiPkZgnFTQH-52">
          <mxGeometry x="10" y="40" width="40" height="20" as="geometry" />
        </mxCell>
        <mxCell id="w3meJBPXueiPkZgnFTQH-55" value="" style="endArrow=classic;html=1;rounded=0;" edge="1" parent="w3meJBPXueiPkZgnFTQH-52">
          <mxGeometry width="50" height="50" relative="1" as="geometry">
            <mxPoint y="55" as="sourcePoint" />
            <mxPoint y="5" as="targetPoint" />
          </mxGeometry>
        </mxCell>
        <mxCell id="w3meJBPXueiPkZgnFTQH-56" value="Opposite as Previous&lt;br&gt;Block" style="text;html=1;align=center;verticalAlign=middle;resizable=0;points=[];autosize=1;strokeColor=none;fillColor=none;" vertex="1" parent="WIyWlLk6GJQsqaUBKTNV-1">
          <mxGeometry x="683" y="100" width="140" height="40" as="geometry" />
        </mxCell>
        <mxCell id="w3meJBPXueiPkZgnFTQH-57" value="" style="group" vertex="1" connectable="0" parent="WIyWlLk6GJQsqaUBKTNV-1">
          <mxGeometry x="635" y="90" width="50" height="60" as="geometry" />
        </mxCell>
        <mxCell id="w3meJBPXueiPkZgnFTQH-58" value="" style="strokeWidth=2;html=1;shape=mxgraph.flowchart.delay;whiteSpace=wrap;" vertex="1" parent="w3meJBPXueiPkZgnFTQH-57">
          <mxGeometry x="10" width="40" height="20" as="geometry" />
        </mxCell>
        <mxCell id="w3meJBPXueiPkZgnFTQH-59" value="" style="strokeWidth=2;html=1;shape=mxgraph.flowchart.display;whiteSpace=wrap;rotation=-180;" vertex="1" parent="w3meJBPXueiPkZgnFTQH-57">
          <mxGeometry x="10" y="40" width="40" height="20" as="geometry" />
        </mxCell>
        <mxCell id="w3meJBPXueiPkZgnFTQH-60" value="" style="endArrow=classic;html=1;rounded=0;" edge="1" parent="w3meJBPXueiPkZgnFTQH-57">
          <mxGeometry width="50" height="50" relative="1" as="geometry">
            <mxPoint y="5" as="sourcePoint" />
            <mxPoint y="55" as="targetPoint" />
          </mxGeometry>
        </mxCell>
        <mxCell id="w3meJBPXueiPkZgnFTQH-62" value="Yes" style="text;html=1;align=center;verticalAlign=middle;resizable=0;points=[];autosize=1;strokeColor=none;fillColor=none;" vertex="1" parent="WIyWlLk6GJQsqaUBKTNV-1">
          <mxGeometry x="276" y="325" width="40" height="30" as="geometry" />
        </mxCell>
        <mxCell id="w3meJBPXueiPkZgnFTQH-70" style="edgeStyle=orthogonalEdgeStyle;rounded=0;orthogonalLoop=1;jettySize=auto;html=1;entryX=0.5;entryY=0;entryDx=0;entryDy=0;" edge="1" parent="WIyWlLk6GJQsqaUBKTNV-1" source="w3meJBPXueiPkZgnFTQH-63" target="w3meJBPXueiPkZgnFTQH-69">
          <mxGeometry relative="1" as="geometry" />
        </mxCell>
        <mxCell id="w3meJBPXueiPkZgnFTQH-63" value="Answers the&lt;br&gt;Question" style="rounded=1;whiteSpace=wrap;html=1;" vertex="1" parent="WIyWlLk6GJQsqaUBKTNV-1">
          <mxGeometry x="220" y="370" width="120" height="60" as="geometry" />
        </mxCell>
        <mxCell id="w3meJBPXueiPkZgnFTQH-65" value="" style="group" vertex="1" connectable="0" parent="WIyWlLk6GJQsqaUBKTNV-1">
          <mxGeometry x="160" y="370" width="50" height="60" as="geometry" />
        </mxCell>
        <mxCell id="w3meJBPXueiPkZgnFTQH-66" value="" style="strokeWidth=2;html=1;shape=mxgraph.flowchart.delay;whiteSpace=wrap;" vertex="1" parent="w3meJBPXueiPkZgnFTQH-65">
          <mxGeometry x="10" width="40" height="20" as="geometry" />
        </mxCell>
        <mxCell id="w3meJBPXueiPkZgnFTQH-67" value="" style="strokeWidth=2;html=1;shape=mxgraph.flowchart.display;whiteSpace=wrap;rotation=-180;" vertex="1" parent="w3meJBPXueiPkZgnFTQH-65">
          <mxGeometry x="10" y="40" width="40" height="20" as="geometry" />
        </mxCell>
        <mxCell id="w3meJBPXueiPkZgnFTQH-68" value="" style="endArrow=classic;html=1;rounded=0;" edge="1" parent="w3meJBPXueiPkZgnFTQH-65">
          <mxGeometry width="50" height="50" relative="1" as="geometry">
            <mxPoint y="55" as="sourcePoint" />
            <mxPoint y="5" as="targetPoint" />
          </mxGeometry>
        </mxCell>
        <mxCell id="w3meJBPXueiPkZgnFTQH-77" style="edgeStyle=orthogonalEdgeStyle;rounded=0;orthogonalLoop=1;jettySize=auto;html=1;entryX=0.117;entryY=-0.03;entryDx=0;entryDy=0;entryPerimeter=0;" edge="1" parent="WIyWlLk6GJQsqaUBKTNV-1" source="w3meJBPXueiPkZgnFTQH-69" target="w3meJBPXueiPkZgnFTQH-12">
          <mxGeometry relative="1" as="geometry">
            <Array as="points">
              <mxPoint x="80" y="525" />
              <mxPoint x="80" y="100" />
              <mxPoint x="234" y="100" />
            </Array>
          </mxGeometry>
        </mxCell>
        <mxCell id="w3meJBPXueiPkZgnFTQH-69" value="Satisfied by the Answer" style="rhombus;whiteSpace=wrap;html=1;" vertex="1" parent="WIyWlLk6GJQsqaUBKTNV-1">
          <mxGeometry x="225" y="480" width="110" height="90" as="geometry" />
        </mxCell>
        <mxCell id="w3meJBPXueiPkZgnFTQH-71" value="" style="group" vertex="1" connectable="0" parent="WIyWlLk6GJQsqaUBKTNV-1">
          <mxGeometry x="218" y="452" width="40" height="50" as="geometry" />
        </mxCell>
        <mxCell id="w3meJBPXueiPkZgnFTQH-72" value="" style="strokeWidth=2;html=1;shape=mxgraph.flowchart.delay;whiteSpace=wrap;" vertex="1" parent="w3meJBPXueiPkZgnFTQH-71">
          <mxGeometry x="8" width="32" height="16.666666666666668" as="geometry" />
        </mxCell>
        <mxCell id="w3meJBPXueiPkZgnFTQH-73" value="" style="strokeWidth=2;html=1;shape=mxgraph.flowchart.display;whiteSpace=wrap;rotation=-180;" vertex="1" parent="w3meJBPXueiPkZgnFTQH-71">
          <mxGeometry x="8" y="33.333333333333336" width="32" height="16.666666666666668" as="geometry" />
        </mxCell>
        <mxCell id="w3meJBPXueiPkZgnFTQH-74" value="" style="endArrow=classic;html=1;rounded=0;" edge="1" parent="w3meJBPXueiPkZgnFTQH-71">
          <mxGeometry width="50" height="50" relative="1" as="geometry">
            <mxPoint y="4.166666666666667" as="sourcePoint" />
            <mxPoint y="45.833333333333336" as="targetPoint" />
          </mxGeometry>
        </mxCell>
        <mxCell id="w3meJBPXueiPkZgnFTQH-78" value="Yes" style="text;html=1;align=center;verticalAlign=middle;resizable=0;points=[];autosize=1;strokeColor=none;fillColor=none;" vertex="1" parent="WIyWlLk6GJQsqaUBKTNV-1">
          <mxGeometry x="180" y="525" width="40" height="30" as="geometry" />
        </mxCell>
        <mxCell id="w3meJBPXueiPkZgnFTQH-79" value="Requests for Rephrasing" style="rounded=1;whiteSpace=wrap;html=1;" vertex="1" parent="WIyWlLk6GJQsqaUBKTNV-1">
          <mxGeometry x="420" y="250" width="120" height="60" as="geometry" />
        </mxCell>
        <mxCell id="w3meJBPXueiPkZgnFTQH-81" value="No" style="text;html=1;align=center;verticalAlign=middle;resizable=0;points=[];autosize=1;strokeColor=none;fillColor=none;" vertex="1" parent="WIyWlLk6GJQsqaUBKTNV-1">
          <mxGeometry x="311" y="278" width="40" height="30" as="geometry" />
        </mxCell>
        <mxCell id="w3meJBPXueiPkZgnFTQH-82" value="Requests for Changing the Question" style="rounded=1;whiteSpace=wrap;html=1;" vertex="1" parent="WIyWlLk6GJQsqaUBKTNV-1">
          <mxGeometry x="420" y="340" width="120" height="60" as="geometry" />
        </mxCell>
        <mxCell id="w3meJBPXueiPkZgnFTQH-83" value="Requests for some time (in special cases)" style="rounded=1;whiteSpace=wrap;html=1;" vertex="1" parent="WIyWlLk6GJQsqaUBKTNV-1">
          <mxGeometry x="420" y="430" width="120" height="60" as="geometry" />
        </mxCell>
        <mxCell id="w3meJBPXueiPkZgnFTQH-84" value="" style="group" vertex="1" connectable="0" parent="WIyWlLk6GJQsqaUBKTNV-1">
          <mxGeometry x="380" y="230" width="34" height="40" as="geometry" />
        </mxCell>
        <mxCell id="w3meJBPXueiPkZgnFTQH-85" value="" style="strokeWidth=2;html=1;shape=mxgraph.flowchart.delay;whiteSpace=wrap;" vertex="1" parent="w3meJBPXueiPkZgnFTQH-84">
          <mxGeometry x="6.800000000000001" width="27.200000000000003" height="13.333333333333332" as="geometry" />
        </mxCell>
        <mxCell id="w3meJBPXueiPkZgnFTQH-86" value="" style="strokeWidth=2;html=1;shape=mxgraph.flowchart.display;whiteSpace=wrap;rotation=-180;" vertex="1" parent="w3meJBPXueiPkZgnFTQH-84">
          <mxGeometry x="6.800000000000001" y="26.666666666666664" width="27.200000000000003" height="13.333333333333332" as="geometry" />
        </mxCell>
        <mxCell id="w3meJBPXueiPkZgnFTQH-87" value="" style="endArrow=classic;html=1;rounded=0;" edge="1" parent="w3meJBPXueiPkZgnFTQH-84">
          <mxGeometry width="50" height="50" relative="1" as="geometry">
            <mxPoint y="36.666666666666664" as="sourcePoint" />
            <mxPoint y="3.333333333333333" as="targetPoint" />
          </mxGeometry>
        </mxCell>
        <mxCell id="w3meJBPXueiPkZgnFTQH-89" value="" style="endArrow=classic;html=1;rounded=0;entryX=0;entryY=0.5;entryDx=0;entryDy=0;exitX=1;exitY=0.5;exitDx=0;exitDy=0;" edge="1" parent="WIyWlLk6GJQsqaUBKTNV-1" source="w3meJBPXueiPkZgnFTQH-24" target="w3meJBPXueiPkZgnFTQH-82">
          <mxGeometry width="50" height="50" relative="1" as="geometry">
            <mxPoint x="320" y="280" as="sourcePoint" />
            <mxPoint x="370" y="230" as="targetPoint" />
            <Array as="points">
              <mxPoint x="370" y="280" />
              <mxPoint x="370" y="370" />
            </Array>
          </mxGeometry>
        </mxCell>
        <mxCell id="w3meJBPXueiPkZgnFTQH-91" value="" style="group" vertex="1" connectable="0" parent="WIyWlLk6GJQsqaUBKTNV-1">
          <mxGeometry x="380" y="320" width="34" height="40" as="geometry" />
        </mxCell>
        <mxCell id="w3meJBPXueiPkZgnFTQH-92" value="" style="strokeWidth=2;html=1;shape=mxgraph.flowchart.delay;whiteSpace=wrap;" vertex="1" parent="w3meJBPXueiPkZgnFTQH-91">
          <mxGeometry x="6.800000000000001" width="27.200000000000003" height="13.333333333333332" as="geometry" />
        </mxCell>
        <mxCell id="w3meJBPXueiPkZgnFTQH-93" value="" style="strokeWidth=2;html=1;shape=mxgraph.flowchart.display;whiteSpace=wrap;rotation=-180;" vertex="1" parent="w3meJBPXueiPkZgnFTQH-91">
          <mxGeometry x="6.800000000000001" y="26.666666666666664" width="27.200000000000003" height="13.333333333333332" as="geometry" />
        </mxCell>
        <mxCell id="w3meJBPXueiPkZgnFTQH-94" value="" style="endArrow=classic;html=1;rounded=0;" edge="1" parent="w3meJBPXueiPkZgnFTQH-91">
          <mxGeometry width="50" height="50" relative="1" as="geometry">
            <mxPoint y="36.666666666666664" as="sourcePoint" />
            <mxPoint y="3.333333333333333" as="targetPoint" />
          </mxGeometry>
        </mxCell>
        <mxCell id="w3meJBPXueiPkZgnFTQH-95" value="" style="group" vertex="1" connectable="0" parent="WIyWlLk6GJQsqaUBKTNV-1">
          <mxGeometry x="380" y="410" width="34" height="40" as="geometry" />
        </mxCell>
        <mxCell id="w3meJBPXueiPkZgnFTQH-96" value="" style="strokeWidth=2;html=1;shape=mxgraph.flowchart.delay;whiteSpace=wrap;" vertex="1" parent="w3meJBPXueiPkZgnFTQH-95">
          <mxGeometry x="6.800000000000001" width="27.200000000000003" height="13.333333333333332" as="geometry" />
        </mxCell>
        <mxCell id="w3meJBPXueiPkZgnFTQH-97" value="" style="strokeWidth=2;html=1;shape=mxgraph.flowchart.display;whiteSpace=wrap;rotation=-180;" vertex="1" parent="w3meJBPXueiPkZgnFTQH-95">
          <mxGeometry x="6.800000000000001" y="26.666666666666664" width="27.200000000000003" height="13.333333333333332" as="geometry" />
        </mxCell>
        <mxCell id="w3meJBPXueiPkZgnFTQH-98" value="" style="endArrow=classic;html=1;rounded=0;" edge="1" parent="w3meJBPXueiPkZgnFTQH-95">
          <mxGeometry width="50" height="50" relative="1" as="geometry">
            <mxPoint y="36.666666666666664" as="sourcePoint" />
            <mxPoint y="3.333333333333333" as="targetPoint" />
          </mxGeometry>
        </mxCell>
      </root>
    </mxGraphModel>
  </diagram>
</mxfile>
